<svg width="106" height="57" viewBox="0 0 106 57" fill="none" xmlns="http://www.w3.org/2000/svg">
<path d="M50.626 55.415C47.97 55.415 45.3417 54.6957 42.741 53.257C40.1403 51.763 38.0653 48.8857 36.516 44.625L34.441 39.23H11.201L4.561 55H0.826L24.066 0.219998H26.556L44.816 44.625C46.1993 47.8343 47.4997 50.0477 48.717 51.265C49.9343 52.427 51.6773 53.1187 53.946 53.34V55C52.95 55.2767 51.8433 55.415 50.626 55.415ZM12.446 35.91H32.781L22.821 11.84L12.446 35.91ZM66.9575 55.83C65.1869 55.83 63.3885 55.4703 61.5625 54.751C59.7365 53.9763 58.1595 52.7313 56.8315 51.016C55.5589 49.3007 54.9225 47.032 54.9225 44.21C54.9225 40.0047 56.8592 37.0167 60.7325 35.246C64.6612 33.4753 69.7795 32.59 76.0875 32.59H78.5775C78.5775 27.1673 77.8305 23.46 76.3365 21.468C74.8425 19.476 72.6845 18.48 69.8625 18.48C67.3725 18.48 65.3805 19.0057 63.8865 20.057C62.3925 21.1083 61.3412 22.9343 60.7325 25.535H56.9975C56.9975 23.6537 57.1082 22.1873 57.3295 21.136C57.5509 20.0293 58.1319 19.0057 59.0725 18.065C60.0685 17.069 61.7009 16.3497 63.9695 15.907C66.2935 15.409 68.8112 15.16 71.5225 15.16C76.0045 15.16 79.5459 16.3773 82.1465 18.812C84.7472 21.1913 86.0475 25.784 86.0475 32.59V55H81.8975L78.9925 51.265H78.5775C77.5815 52.5377 76.1152 53.6167 74.1785 54.502C72.2419 55.3873 69.8349 55.83 66.9575 55.83ZM70.6925 52.095C72.5185 52.095 74.0402 51.6523 75.2575 50.767C76.4749 49.8817 77.5815 48.6643 78.5775 47.115V35.91H76.0875C71.9929 35.91 68.7559 36.6847 66.3765 38.234C63.9972 39.728 62.8075 41.72 62.8075 44.21C62.8075 46.7553 63.5545 48.7197 65.0485 50.103C66.5979 51.431 68.4792 52.095 70.6925 52.095ZM100.776 56.162C99.5582 56.162 98.5068 55.7193 97.6215 54.834C96.7362 53.9487 96.2935 52.8697 96.2935 51.597C96.2935 50.3797 96.7362 49.3283 97.6215 48.443C98.5068 47.5577 99.5582 47.115 100.776 47.115C102.048 47.115 103.1 47.5577 103.93 48.443C104.815 49.3283 105.258 50.3797 105.258 51.597C105.258 52.8697 104.815 53.9487 103.93 54.834C103.044 55.7193 101.993 56.162 100.776 56.162Z" fill="white"/>
</svg>
