<svg width="510" height="57" viewBox="0 0 510 57" fill="none" xmlns="http://www.w3.org/2000/svg">
<path d="M50.626 55.415C47.97 55.415 45.3417 54.6957 42.741 53.257C40.1403 51.763 38.0653 48.8857 36.516 44.625L34.441 39.23H11.201L4.561 55H0.826L24.066 0.219998H26.556L44.816 44.625C46.1993 47.8343 47.4997 50.0477 48.717 51.265C49.9343 52.427 51.6773 53.1187 53.946 53.34V55C52.95 55.2767 51.8433 55.415 50.626 55.415ZM12.446 35.91H32.781L22.821 11.84L12.446 35.91ZM69.1985 55.83C66.0999 55.83 63.6652 54.9447 61.8945 53.174C60.1239 51.4033 59.2385 48.692 59.2385 45.04V19.31H53.4285V15.99H59.2385V8.52L63.3885 3.54H66.7085V15.99H76.6685V19.31H66.7085V45.04C66.7085 50.02 68.6452 52.51 72.5185 52.51C73.8465 52.51 74.9532 52.3717 75.8385 52.095C76.7792 51.8183 77.7475 51.4033 78.7435 50.85L79.5735 52.51C78.3009 53.4507 76.8899 54.253 75.3405 54.917C73.7912 55.5257 71.7439 55.83 69.1985 55.83ZM85.7065 10.18C85.7065 7.358 85.3191 5.283 84.5445 3.955C83.7698 2.57166 82.2205 1.88 79.8965 1.88H78.2365V0.219998H85.7065C87.7538 0.219998 89.2755 0.496664 90.2715 1.05C91.3228 1.548 92.0698 2.48866 92.5125 3.872C92.9551 5.25533 93.1765 7.358 93.1765 10.18V19.31C94.3385 18.148 95.8325 17.1797 97.6585 16.405C99.5398 15.575 101.642 15.16 103.966 15.16C108.116 15.16 111.492 16.2667 114.092 18.48C116.748 20.6933 118.076 24.5667 118.076 30.1V55H110.606V30.1C110.606 26.2267 109.721 23.4047 107.95 21.634C106.235 19.808 104.077 18.895 101.476 18.895C98.5438 18.895 95.7771 20.3613 93.1765 23.294V55H85.7065V10.18ZM138.934 55.83C137.163 55.83 135.365 55.4703 133.539 54.751C131.713 53.9763 130.136 52.7313 128.808 51.016C127.535 49.3007 126.899 47.032 126.899 44.21C126.899 40.0047 128.836 37.0167 132.709 35.246C136.638 33.4753 141.756 32.59 148.064 32.59H150.554C150.554 27.1673 149.807 23.46 148.313 21.468C146.819 19.476 144.661 18.48 141.839 18.48C139.349 18.48 137.357 19.0057 135.863 20.057C134.369 21.1083 133.318 22.9343 132.709 25.535H128.974C128.974 23.6537 129.085 22.1873 129.306 21.136C129.527 20.0293 130.108 19.0057 131.049 18.065C132.045 17.069 133.677 16.3497 135.946 15.907C138.27 15.409 140.788 15.16 143.499 15.16C147.981 15.16 151.522 16.3773 154.123 18.812C156.724 21.1913 158.024 25.784 158.024 32.59V55H153.874L150.969 51.265H150.554C149.558 52.5377 148.092 53.6167 146.155 54.502C144.218 55.3873 141.811 55.83 138.934 55.83ZM142.669 52.095C144.495 52.095 146.017 51.6523 147.234 50.767C148.451 49.8817 149.558 48.6643 150.554 47.115V35.91H148.064C143.969 35.91 140.732 36.6847 138.353 38.234C135.974 39.728 134.784 41.72 134.784 44.21C134.784 46.7553 135.531 48.7197 137.025 50.103C138.574 51.431 140.456 52.095 142.669 52.095ZM170.262 25.95C170.262 23.128 169.875 21.053 169.1 19.725C168.325 18.3417 166.776 17.65 164.452 17.65H163.622V15.99H170.262C172.365 15.99 173.942 16.2943 174.993 16.903C176.1 17.4563 176.874 18.397 177.317 19.725H177.732C178.728 18.4523 180.056 17.3733 181.716 16.488C183.431 15.6027 185.423 15.16 187.692 15.16C189.905 15.16 191.565 15.575 192.672 16.405C193.613 17.1243 194.581 18.3693 195.577 20.14L192.257 22.63C191.648 21.8 190.763 21.1913 189.601 20.804C188.439 20.3613 187.111 20.14 185.617 20.14C183.957 20.14 182.435 20.5273 181.052 21.302C179.669 22.0213 178.562 23.0173 177.732 24.29V55H170.262V25.95ZM204.828 25.535C203.5 22.4363 202.228 20.2783 201.01 19.061C199.793 17.7883 198.188 17.0967 196.196 16.986V15.326C196.473 15.326 196.86 15.2983 197.358 15.243C197.912 15.1877 198.465 15.16 199.018 15.16C201.951 15.16 204.607 15.907 206.986 17.401C209.366 18.8397 211.413 21.551 213.128 25.535L220.598 43.38L232.218 15.99H236.368L219.353 55.83H217.693L204.828 25.535ZM253.14 55.83C251.369 55.83 249.571 55.4703 247.745 54.751C245.919 53.9763 244.342 52.7313 243.014 51.016C241.741 49.3007 241.105 47.032 241.105 44.21C241.105 40.0047 243.042 37.0167 246.915 35.246C250.844 33.4753 255.962 32.59 262.27 32.59H264.76C264.76 27.1673 264.013 23.46 262.519 21.468C261.025 19.476 258.867 18.48 256.045 18.48C253.555 18.48 251.563 19.0057 250.069 20.057C248.575 21.1083 247.524 22.9343 246.915 25.535H243.18C243.18 23.6537 243.291 22.1873 243.512 21.136C243.733 20.0293 244.314 19.0057 245.255 18.065C246.251 17.069 247.883 16.3497 250.152 15.907C252.476 15.409 254.994 15.16 257.705 15.16C262.187 15.16 265.728 16.3773 268.329 18.812C270.93 21.1913 272.23 25.784 272.23 32.59V55H268.08L265.175 51.265H264.76C263.764 52.5377 262.298 53.6167 260.361 54.502C258.424 55.3873 256.017 55.83 253.14 55.83ZM256.875 52.095C258.701 52.095 260.223 51.6523 261.44 50.767C262.657 49.8817 263.764 48.6643 264.76 47.115V35.91H262.27C258.175 35.91 254.938 36.6847 252.559 38.234C250.18 39.728 248.99 41.72 248.99 44.21C248.99 46.7553 249.737 48.7197 251.231 50.103C252.78 51.431 254.662 52.095 256.875 52.095ZM350.204 55.415C347.548 55.415 344.92 54.6957 342.319 53.257C339.718 51.763 337.643 48.8857 336.094 44.625L334.019 39.23H310.779L304.139 55H300.404L323.644 0.219998H326.134L344.394 44.625C345.777 47.8343 347.078 50.0477 348.295 51.265C349.512 52.427 351.255 53.1187 353.524 53.34V55C352.528 55.2767 351.421 55.415 350.204 55.415ZM312.024 35.91H332.359L322.399 11.84L312.024 35.91ZM357.904 25.95C357.904 23.128 357.516 21.053 356.742 19.725C355.967 18.3417 354.418 17.65 352.094 17.65H351.264V15.99H357.904C360.006 15.99 361.583 16.2943 362.635 16.903C363.741 17.4563 364.516 18.397 364.959 19.725H365.374C366.37 18.4523 367.698 17.3733 369.358 16.488C371.073 15.6027 373.065 15.16 375.334 15.16C377.547 15.16 379.207 15.575 380.314 16.405C381.254 17.1243 382.223 18.3693 383.219 20.14L379.899 22.63C379.29 21.8 378.405 21.1913 377.243 20.804C376.081 20.3613 374.753 20.14 373.259 20.14C371.599 20.14 370.077 20.5273 368.694 21.302C367.31 22.0213 366.204 23.0173 365.374 24.29V55H357.904V25.95ZM408.904 55.83C406.082 55.83 403.758 55.3873 401.932 54.502C400.106 53.6167 398.695 52.5377 397.699 51.265H397.284L394.379 55H390.229V10.18C390.229 7.358 389.842 5.283 389.067 3.955C388.292 2.57166 386.743 1.88 384.419 1.88H382.759V0.219998H390.229C392.276 0.219998 393.798 0.496664 394.794 1.05C395.845 1.548 396.592 2.48866 397.035 3.872C397.478 5.25533 397.699 7.358 397.699 10.18V17.65C399.304 16.8753 400.908 16.2667 402.513 15.824C404.118 15.3813 405.971 15.16 408.074 15.16C413.22 15.16 417.121 17.069 419.777 20.887C422.488 24.705 423.844 29.5743 423.844 35.495C423.844 41.3603 422.544 46.2297 419.943 50.103C417.342 53.921 413.663 55.83 408.904 55.83ZM406.414 52.51C409.568 52.51 411.947 50.9607 413.552 47.862C415.157 44.708 415.959 40.5857 415.959 35.495C415.959 30.349 415.101 26.2267 413.386 23.128C411.726 20.0293 409.125 18.48 405.584 18.48C404.422 18.48 403.232 18.7013 402.015 19.144C400.798 19.5867 399.359 20.1953 397.699 20.97V47.53C398.695 49.024 399.857 50.2413 401.185 51.182C402.568 52.0673 404.311 52.51 406.414 52.51ZM442.97 55.83C441.2 55.83 439.401 55.4703 437.575 54.751C435.749 53.9763 434.172 52.7313 432.844 51.016C431.572 49.3007 430.935 47.032 430.935 44.21C430.935 40.0047 432.872 37.0167 436.745 35.246C440.674 33.4753 445.792 32.59 452.1 32.59H454.59C454.59 27.1673 453.843 23.46 452.349 21.468C450.855 19.476 448.697 18.48 445.875 18.48C443.385 18.48 441.393 19.0057 439.899 20.057C438.405 21.1083 437.354 22.9343 436.745 25.535H433.01C433.01 23.6537 433.121 22.1873 433.342 21.136C433.564 20.0293 434.145 19.0057 435.085 18.065C436.081 17.069 437.714 16.3497 439.982 15.907C442.306 15.409 444.824 15.16 447.535 15.16C452.017 15.16 455.559 16.3773 458.159 18.812C460.76 21.1913 462.06 25.784 462.06 32.59V55H457.91L455.005 51.265H454.59C453.594 52.5377 452.128 53.6167 450.191 54.502C448.255 55.3873 445.848 55.83 442.97 55.83ZM446.705 52.095C448.531 52.095 450.053 51.6523 451.27 50.767C452.488 49.8817 453.594 48.6643 454.59 47.115V35.91H452.1C448.006 35.91 444.769 36.6847 442.389 38.234C440.01 39.728 438.82 41.72 438.82 44.21C438.82 46.7553 439.567 48.7197 441.061 50.103C442.611 51.431 444.492 52.095 446.705 52.095ZM485.171 55.83C482.073 55.83 479.638 54.9447 477.867 53.174C476.097 51.4033 475.211 48.692 475.211 45.04V19.31H469.401V15.99H475.211V8.52L479.361 3.54H482.681V15.99H492.641V19.31H482.681V45.04C482.681 50.02 484.618 52.51 488.491 52.51C489.819 52.51 490.926 52.3717 491.811 52.095C492.752 51.8183 493.72 51.4033 494.716 50.85L495.546 52.51C494.274 53.4507 492.863 54.253 491.313 54.917C489.764 55.5257 487.717 55.83 485.171 55.83ZM504.833 56.162C503.616 56.162 502.564 55.7193 501.679 54.834C500.794 53.9487 500.351 52.8697 500.351 51.597C500.351 50.3797 500.794 49.3283 501.679 48.443C502.564 47.5577 503.616 47.115 504.833 47.115C506.106 47.115 507.157 47.5577 507.987 48.443C508.872 49.3283 509.315 50.3797 509.315 51.597C509.315 52.8697 508.872 53.9487 507.987 54.834C507.102 55.7193 506.05 56.162 504.833 56.162Z" fill="white"/>
</svg>
