<svg xmlns="http://www.w3.org/2000/svg" xml:space="preserve" width="840" height="384" viewBox="0 0 840 384" role="img" aria-label="htop-style system monitor. CPU cores are Atharva's languages — C/C++, Go, TypeScript, Python, x86 assembly, Next.js, PostgreSQL, Docker — with fluctuating usage bars. Process table lists his projects: arbos, concurrent_kv, auth4agent, vegapod_mvcu, llm_review, gym_mgmt.">
  <title>htop — atharva@arbos</title>
  <defs>
    <radialGradient id="vig" cx="50%" cy="50%" r="75%">
      <stop offset="60%" stop-color="#000" stop-opacity="0"/>
      <stop offset="100%" stop-color="#000" stop-opacity=".38"/>
    </radialGradient>
    <pattern id="scan" width="4" height="4" patternUnits="userSpaceOnUse">
      <rect width="4" height="2" fill="#000" opacity=".16"/>
    </pattern>
  </defs>
  <style>
    text{font-family:ui-monospace,'Cascadia Mono','Cascadia Code',Menlo,Consolas,'Liberation Mono',monospace;font-size:12px;fill:#b8e6c4}
    .dim{fill:#5c7a66}.hi{fill:#4afa7b}.amb{fill:#ffb000}.wht{fill:#d9ffe6}
    .bar{transform-box:fill-box;transform-origin:left center}
    .c0{animation:l0 3.1s steps(1,end) infinite}
    @keyframes l0{0%{transform:scaleX(.88)}22%{transform:scaleX(.72)}45%{transform:scaleX(.93)}70%{transform:scaleX(.66)}100%{transform:scaleX(.88)}}
    .c1{animation:l1 4.3s steps(1,end) infinite}
    @keyframes l1{0%{transform:scaleX(.76)}25%{transform:scaleX(.58)}50%{transform:scaleX(.83)}75%{transform:scaleX(.64)}100%{transform:scaleX(.76)}}
    .c2{animation:l2 3.7s steps(1,end) infinite}
    @keyframes l2{0%{transform:scaleX(.81)}20%{transform:scaleX(.62)}55%{transform:scaleX(.9)}80%{transform:scaleX(.7)}100%{transform:scaleX(.81)}}
    .c3{animation:l3 5.1s steps(1,end) infinite}
    @keyframes l3{0%{transform:scaleX(.72)}30%{transform:scaleX(.55)}60%{transform:scaleX(.79)}85%{transform:scaleX(.61)}100%{transform:scaleX(.72)}}
    .c4{animation:l4 2.9s steps(1,end) infinite}
    @keyframes l4{0%{transform:scaleX(.64)}25%{transform:scaleX(.48)}50%{transform:scaleX(.71)}75%{transform:scaleX(.52)}100%{transform:scaleX(.64)}}
    .c5{animation:l5 4.7s steps(1,end) infinite}
    @keyframes l5{0%{transform:scaleX(.78)}20%{transform:scaleX(.6)}50%{transform:scaleX(.86)}80%{transform:scaleX(.68)}100%{transform:scaleX(.78)}}
    .c6{animation:l6 3.3s steps(1,end) infinite}
    @keyframes l6{0%{transform:scaleX(.69)}30%{transform:scaleX(.5)}65%{transform:scaleX(.77)}100%{transform:scaleX(.69)}}
    .c7{animation:l7 5.3s steps(1,end) infinite}
    @keyframes l7{0%{transform:scaleX(.7)}25%{transform:scaleX(.54)}55%{transform:scaleX(.8)}85%{transform:scaleX(.6)}100%{transform:scaleX(.7)}}
    .fa{animation:fa 2.4s steps(1,end) infinite}
    .fb{animation:fb 2.4s steps(1,end) infinite}
    @keyframes fa{0%,49%{opacity:1}50%,100%{opacity:0}}
    @keyframes fb{0%,49%{opacity:0}50%,100%{opacity:1}}
    @media (prefers-reduced-motion:reduce){*{animation-duration:.01ms!important;animation-iteration-count:1!important}}
  </style>
  <rect width="840" height="384" rx="16" fill="#101612"/>
  <rect x="6" y="6" width="828" height="372" rx="10" fill="#0a0f0c" stroke="#1d2a22"/>
  <circle cx="30" cy="26" r="6" fill="#ff5f56"/><circle cx="52" cy="26" r="6" fill="#ffbd2e"/><circle cx="74" cy="26" r="6" fill="#27c93f"/>
  <text x="420" y="30" text-anchor="middle" class="dim">htop — atharva@arbos</text>
  <line x1="6" y1="44" x2="834" y2="44" stroke="#1d2a22"/>

  <g>
    <text x="36" y="74" class="dim">0</text><text x="52" y="74">C / C++</text>
    <rect x="150" y="63" width="230" height="13" fill="#10201a" stroke="#23392c"/>
    <rect class="bar c0" x="150" y="63" width="230" height="13" fill="#4afa7b"/>
    <text x="390" y="74" class="hi">88%</text>
    <text x="446" y="74" class="dim">1</text><text x="462" y="74">Go</text>
    <rect x="560" y="63" width="230" height="13" fill="#10201a" stroke="#23392c"/>
    <rect class="bar c1" x="560" y="63" width="230" height="13" fill="#4afa7b"/>
    <text x="800" y="74" class="hi" text-anchor="start">76%</text>
  </g>
  <g>
    <text x="36" y="102" class="dim">2</text><text x="52" y="102">TypeScript</text>
    <rect x="150" y="91" width="230" height="13" fill="#10201a" stroke="#23392c"/>
    <rect class="bar c2" x="150" y="91" width="230" height="13" fill="#4afa7b"/>
    <text x="390" y="102" class="hi">81%</text>
    <text x="446" y="102" class="dim">3</text><text x="462" y="102">Python</text>
    <rect x="560" y="91" width="230" height="13" fill="#10201a" stroke="#23392c"/>
    <rect class="bar c3" x="560" y="91" width="230" height="13" fill="#4afa7b"/>
    <text x="800" y="102" class="hi" text-anchor="start">72%</text>
  </g>
  <g>
    <text x="36" y="130" class="dim">4</text><text x="52" y="130">x86 asm</text>
    <rect x="150" y="119" width="230" height="13" fill="#10201a" stroke="#23392c"/>
    <rect class="bar c4" x="150" y="119" width="230" height="13" fill="#4afa7b"/>
    <text x="390" y="130" class="hi">64%</text>
    <text x="446" y="130" class="dim">5</text><text x="462" y="130">Next.js</text>
    <rect x="560" y="119" width="230" height="13" fill="#10201a" stroke="#23392c"/>
    <rect class="bar c5" x="560" y="119" width="230" height="13" fill="#4afa7b"/>
    <text x="800" y="130" class="hi" text-anchor="start">78%</text>
  </g>
  <g>
    <text x="36" y="158" class="dim">6</text><text x="52" y="158">Postgres</text>
    <rect x="150" y="147" width="230" height="13" fill="#10201a" stroke="#23392c"/>
    <rect class="bar c6" x="150" y="147" width="230" height="13" fill="#4afa7b"/>
    <text x="390" y="158" class="hi">69%</text>
    <text x="446" y="158" class="dim">7</text><text x="462" y="158">Docker</text>
    <rect x="560" y="147" width="230" height="13" fill="#10201a" stroke="#23392c"/>
    <rect class="bar c7" x="560" y="147" width="230" height="13" fill="#4afa7b"/>
    <text x="800" y="158" class="hi" text-anchor="start">70%</text>
  </g>

  <text x="36" y="190" class="dim">Tasks: <tspan class="wht">6 total</tspan>, <tspan class="hi">6 running</tspan>   Load average: <tspan class="wht">0.11 0.49 1.337</tspan>   Uptime: <tspan class="wht">3+ yrs shipping</tspan></text>

  <rect x="26" y="202" width="788" height="20" fill="#1d3a2a"/>
  <text x="76" y="217" text-anchor="end" class="hi">PID</text>
  <text x="92" y="217" class="hi">USER</text>
  <text x="240" y="217" text-anchor="end" class="hi">CPU%</text>
  <text x="330" y="217" text-anchor="end" class="hi">TIME+</text>
  <text x="350" y="217" class="hi">COMMAND</text>

  <text x="76" y="241" text-anchor="end" class="dim">1337</text><text x="92" y="241">atharva</text><text x="240" y="241" text-anchor="end" class="hi">98.6</text><text x="330" y="241" text-anchor="end" class="dim">∞</text><text x="350" y="241" class="wht">./arbos --boot-target=real_hardware</text>
  <text x="76" y="264" text-anchor="end" class="dim">4900</text><text x="92" y="264">atharva</text><text x="240" y="264" text-anchor="end" class="hi">49.0</text><text x="330" y="264" text-anchor="end" class="dim">12:07.33</text><text x="350" y="264" class="wht">./concurrent_kv --workers=8 --queue=lock-free</text>
  <text x="76" y="287" text-anchor="end" class="dim">2551</text><text x="92" y="287">atharva</text><text x="240" y="287" text-anchor="end" class="hi">25.5</text><text x="330" y="287" text-anchor="end" class="dim">07:41.02</text><text x="350" y="287" class="wht">auth4agent issue --scope=agents --deny-by-default</text>
  <text x="76" y="310" text-anchor="end" class="dim">2026</text><text x="92" y="310">atharva</text><text x="240" y="310" text-anchor="end" class="hi"><tspan class="fa">11.0</tspan><tspan class="fb" x="240" text-anchor="end">10.9</tspan></text><text x="330" y="310" text-anchor="end" class="dim">24:07.00</text><text x="350" y="310" class="wht">vegapod_mvcu --threads=4 --latency-budget=11ms</text>
  <text x="76" y="333" text-anchor="end" class="dim">1801</text><text x="92" y="333">atharva</text><text x="240" y="333" text-anchor="end" class="hi">1.8</text><text x="330" y="333" text-anchor="end" class="dim">03:14.15</text><text x="350" y="333" class="wht">llm_review --diff HEAD~1 --format=json</text>
  <text x="76" y="356" text-anchor="end" class="dim">8080</text><text x="92" y="356">atharva</text><text x="240" y="356" text-anchor="end" class="hi">2.0</text><text x="330" y="356" text-anchor="end" class="dim">52:00.00</text><text x="350" y="356" class="wht">gym_mgmt serve --tenants=2 --paying=true</text>

  <rect x="6" y="6" width="828" height="372" rx="10" fill="url(#scan)" opacity=".5"/>
  <rect x="6" y="6" width="828" height="372" rx="10" fill="url(#vig)"/>
</svg>
